#tb 0: 1001/30000
0,          0,          0,        1,    65856, 13263674ea5aa619250dfd139bda872f
0,          1,          1,        1,    65856, 39f5cbd8917f2b3a1df8cf2b786266de
0,          2,          2,        1,    65856, f9aade31f9e3065f3d5b8645ef099ac6
0,          3,          3,        1,    65856, 124f9664380f092e692b5e881f5a8fcc
0,          4,          4,        1,    65856, e8e040e417830f5e911537828ace21b7
0,          5,          5,        1,    65856, 84ce09882b9c184a787e8022e6d8c8de
0,          6,          6,        1,    65856, b1397fd91814e4fdc4f75c89161ced26
0,          7,          7,        1,    65856, d64f39d64d248f0223ed359e092d46cb
0,          8,          8,        1,    65856, e04ee663dcc52eebd74255671c6f4ec9
0,          9,          9,        1,    65856, 955303cb73bf072c693f37d9778ca2b6
